<svg width="200" height="200" viewBox="0 0 200 200" fill="none" xmlns="http://www.w3.org/2000/svg">
<path d="M100 0C155.228 0 200 44.7715 200 100C200 155.228 155.228 200 100 200C44.7715 200 0 155.228 0 100C0 44.7715 44.7715 0 100 0Z" fill="currentColor" fill-opacity="0.1"/>
<path d="M150 50C150 77.6142 127.614 100 100 100C72.3858 100 50 77.6142 50 50C50 22.3858 72.3858 0 100 0C127.614 0 150 22.3858 150 50Z" stroke="currentColor" stroke-opacity="0.2" stroke-width="2"/>
<path d="M100 20C144.183 20 180 55.8172 180 100C180 144.183 144.183 180 100 180C55.8172 180 20 144.183 20 100C20 55.8172 55.8172 20 100 20Z" stroke="currentColor" stroke-opacity="0.1" stroke-width="4" stroke-dasharray="8 8"/>
<circle cx="100" cy="100" r="30" stroke="currentColor" stroke-opacity="0.3" stroke-width="1"/>
</svg>